<svg width="48" height="48" viewBox="0 0 48 48" fill="none" xmlns="http://www.w3.org/2000/svg">
<path d="M24 45C18.4305 45 13.089 42.7875 9.15076 38.8492C5.21249 34.911 3 29.5695 3 24C3 18.4305 5.21249 13.089 9.15076 9.15076C13.089 5.21249 18.4305 3 24 3C29.5695 3 34.911 5.21249 38.8492 9.15076C42.7875 13.089 45 18.4305 45 24C45 29.5695 42.7875 34.911 38.8492 38.8492C34.911 42.7875 29.5695 45 24 45ZM24 48C30.3652 48 36.4697 45.4714 40.9706 40.9706C45.4714 36.4697 48 30.3652 48 24C48 17.6348 45.4714 11.5303 40.9706 7.02944C36.4697 2.52856 30.3652 0 24 0C17.6348 0 11.5303 2.52856 7.02944 7.02944C2.52856 11.5303 0 17.6348 0 24C0 30.3652 2.52856 36.4697 7.02944 40.9706C11.5303 45.4714 17.6348 48 24 48Z" fill="#C106C4"/>
<path d="M32.9097 14.9099C32.8883 14.9306 32.8683 14.9526 32.8497 14.9759L22.4307 28.2509L16.1517 21.9689C15.7252 21.5714 15.161 21.3551 14.5781 21.3653C13.9952 21.3756 13.4391 21.6118 13.0268 22.024C12.6146 22.4362 12.3785 22.9924 12.3682 23.5753C12.3579 24.1582 12.5743 24.7223 12.9717 25.1489L20.9097 33.0899C21.1235 33.3033 21.3782 33.4715 21.6585 33.5844C21.9387 33.6973 22.2388 33.7526 22.5409 33.747C22.843 33.7414 23.1409 33.6751 23.4168 33.5518C23.6927 33.4286 23.9409 33.2511 24.1467 33.0299L36.1227 18.0599C36.5305 17.6319 36.7535 17.0606 36.7434 16.4695C36.7333 15.8784 36.491 15.315 36.0689 14.9011C35.6467 14.4873 35.0787 14.2562 34.4875 14.2578C33.8963 14.2595 33.3296 14.4937 32.9097 14.9099Z" fill="#C106C4"/>
</svg>
