<svg width="48" height="48" viewBox="0 0 48 48" fill="none" xmlns="http://www.w3.org/2000/svg">
<path d="M33 33V42H9V6H24V3H9C8.20435 3 7.44129 3.31607 6.87868 3.87868C6.31607 4.44129 6 5.20435 6 6V42C6 42.7957 6.31607 43.5587 6.87868 44.1213C7.44129 44.6839 8.20435 45 9 45H33C33.7956 45 34.5587 44.6839 35.1213 44.1213C35.6839 43.5587 36 42.7957 36 42V33H33Z" fill="#0692C4"/>
<path d="M44.31 8.63996L39.36 3.68996C38.9114 3.25022 38.3082 3.00391 37.68 3.00391C37.0518 3.00391 36.4486 3.25022 36 3.68996L15 24.69V33H23.295L44.295 12C44.7347 11.5513 44.9811 10.9482 44.9811 10.32C44.9811 9.69176 44.7347 9.08859 44.295 8.63996H44.31ZM22.05 30H18V25.95L32.16 11.775L36.225 15.84L22.05 30ZM38.34 13.725L34.275 9.65996L37.68 6.25496L41.745 10.32L38.34 13.725Z" fill="#0692C4"/>
</svg>
