<svg width="64" height="64" viewBox="0 0 64 64" fill="none" xmlns="http://www.w3.org/2000/svg">
<path d="M60.333 22.575L41.421 3.66C40.367 2.605 38.968 2 37.582 2C36.577 2 35.679 2.317 34.98 2.918L3.76799 29.77C3.23684 30.2212 2.80562 30.7782 2.50189 31.4055C2.19815 32.0328 2.02858 32.7165 2.00399 33.413C1.94799 34.907 2.52599 36.339 3.63199 37.446L26.553 60.369C27.606 61.421 28.969 62 30.391 62C31.12 61.999 31.8402 61.8405 32.5023 61.5354C33.1644 61.2303 33.7527 60.7856 34.227 60.232L61.075 29.017C62.554 27.299 62.228 24.47 60.333 22.575ZM3.82099 33.481C3.83686 33.0347 3.94575 32.5967 4.14068 32.195C4.33561 31.7932 4.61228 31.4366 4.95299 31.148L36.167 4.297C36.529 3.984 37.019 3.818 37.582 3.818C38.476 3.818 39.431 4.24 40.136 4.946L41.775 6.584L6.97099 38.213L4.91799 36.159C4.17299 35.414 3.78299 34.463 3.82099 33.481ZM59.696 27.832L32.85 59.047C32.5478 59.4042 32.1711 59.6909 31.7463 59.887C31.3215 60.0831 30.8589 60.1838 30.391 60.182C29.454 60.182 28.547 59.791 27.837 59.082L15.034 46.277L48.475 13.287L59.048 23.86C60.252 25.065 60.544 26.848 59.696 27.832Z" fill="#C4BE06"/>
<path d="M47.837 18.6069L22.449 44.5209L29.977 52.0499L31.118 50.8039C31.882 50.9779 32.773 50.7409 33.415 50.0849C34.374 49.1039 34.953 47.6969 35.315 46.2139L54.487 25.2579L47.837 18.6069ZM47.421 27.6879C46.717 28.0009 45.524 28.3499 46.681 26.9989L47.46 27.6039C47.448 27.6329 47.433 27.6599 47.421 27.6879ZM51.854 24.5939C51.864 24.5849 51.859 24.5729 51.865 24.5639L52.601 25.2999L38.821 40.3639C39.362 39.2579 39.766 38.1099 40.157 36.9469C40.331 36.4249 40.78 36.5449 41.137 36.1849C41.864 35.4509 42.566 34.7039 43.274 33.9739C44.17 33.0519 44.478 31.8289 45.303 30.9019C46.19 29.9079 47.041 29.3379 47.605 28.2229C49.263 27.5039 50.739 25.6569 51.854 24.5939ZM24.368 44.5119L47.847 20.5449L51.6 24.2989C51.589 24.3049 51.578 24.2989 51.568 24.3089C50.916 24.9289 50.248 25.5439 49.555 26.1419C49.0339 26.5881 48.4916 27.009 47.93 27.4029C48.018 26.9929 47.974 26.2749 47.392 26.2319C46.156 26.1349 45.072 28.7499 46.72 28.4989C46.839 28.4799 46.956 28.4339 47.074 28.4009C46.899 28.7209 46.694 29.0249 46.48 29.3139C45.998 29.9709 45.232 30.3539 44.685 30.9679C43.99 31.7459 43.718 32.8619 42.974 33.6729C42.645 34.0309 40.85 36.3249 40.212 36.0549C40.133 36.0239 40.021 36.0669 39.994 36.1429C39.788 36.7359 39.586 37.3339 39.382 37.9319C39.347 38.0369 39.133 38.4819 38.923 38.9229C39.134 37.9529 39.161 36.9049 39.054 36.4099C39.016 36.2349 38.808 36.2219 38.709 36.3009C37.84 36.9959 37.583 38.6479 38.051 39.9029C37.79 40.1709 37.461 40.3609 37.04 40.4499C36.795 40.3149 36.616 40.6789 36.862 40.8149C36.942 40.8579 37.014 40.8789 37.089 40.9069C36.737 41.1919 36.335 41.4709 35.903 41.7509C36.012 40.0029 36.135 36.5849 34.155 36.1329C34.057 36.1109 33.973 36.1379 33.927 36.2209C33.061 37.7429 31.822 40.9339 33.614 42.5889C33.825 42.7839 34.103 42.4859 33.892 42.2909C32.517 41.0209 33.335 38.6439 33.835 37.3449C34.61 35.3389 35.428 39.1949 35.47 39.7879C35.523 40.5299 35.514 41.2769 35.475 42.0239C32.991 43.5799 29.82 45.2539 29.577 48.3809C29.523 49.0869 29.682 49.6369 29.966 50.0409L29.933 50.0779L24.368 44.5119ZM38.548 37.1069C38.792 37.6029 38.829 38.0859 38.657 38.5529C38.6136 38.8729 38.5123 39.1823 38.358 39.4659C38.172 38.6639 38.284 37.7639 38.548 37.1069ZM30.454 49.5099C30.283 49.1019 30.146 48.5859 30.052 47.9379C30.1879 47.2222 30.5311 46.5622 31.039 46.0399C32.224 44.5699 33.88 43.5989 35.449 42.5959C35.4024 43.1618 35.331 43.7253 35.235 44.2849L30.454 49.5099ZM33.811 48.6959C33.5102 49.301 33.0797 49.8323 32.55 50.2519C32.107 50.5209 31.723 50.5959 31.388 50.5079L34.499 47.1099C34.299 47.6499 34.071 48.1819 33.811 48.6959ZM35.865 42.3269C36.43 41.9569 36.976 41.5759 37.476 41.1589C37.538 41.1069 37.539 41.0449 37.52 40.9839C37.84 40.9599 38.105 40.7579 38.323 40.4549C38.341 40.4839 38.352 40.5189 38.373 40.5469C38.3928 40.5776 38.4192 40.6033 38.4504 40.6222C38.4816 40.6411 38.5167 40.6526 38.553 40.6559L35.74 43.7299C35.794 43.2469 35.837 42.7729 35.865 42.3269Z" fill="#C4BE06"/>
</svg>
