<svg width="48" height="48" viewBox="0 0 48 48" fill="none" xmlns="http://www.w3.org/2000/svg">
<path d="M31.5 30C31.1022 30 30.7206 30.158 30.4393 30.4393C30.158 30.7206 30 31.1022 30 31.5C30 31.8978 30.158 32.2794 30.4393 32.5607C30.7206 32.842 31.1022 33 31.5 33H37.5C37.8978 33 38.2794 32.842 38.5607 32.5607C38.842 32.2794 39 31.8978 39 31.5C39 31.1022 38.842 30.7206 38.5607 30.4393C38.2794 30.158 37.8978 30 37.5 30H31.5Z" fill="#1FC406"/>
<path d="M3 15C3 13.4087 3.63214 11.8826 4.75736 10.7574C5.88258 9.63214 7.4087 9 9 9H39C40.5913 9 42.1174 9.63214 43.2426 10.7574C44.3679 11.8826 45 13.4087 45 15V33C45 34.5913 44.3679 36.1174 43.2426 37.2426C42.1174 38.3679 40.5913 39 39 39H9C7.4087 39 5.88258 38.3679 4.75736 37.2426C3.63214 36.1174 3 34.5913 3 33V15ZM42 15C42 14.2044 41.6839 13.4413 41.1213 12.8787C40.5587 12.3161 39.7957 12 39 12H9C8.20435 12 7.44129 12.3161 6.87868 12.8787C6.31607 13.4413 6 14.2044 6 15V18H42V15ZM6 33C6 33.7956 6.31607 34.5587 6.87868 35.1213C7.44129 35.6839 8.20435 36 9 36H39C39.7957 36 40.5587 35.6839 41.1213 35.1213C41.6839 34.5587 42 33.7956 42 33V21H6V33Z" fill="#1FC406"/>
</svg>
